<svg width="216" height="198" xmlns="http://www.w3.org/2000/svg" preserveAspectRatio="xMidYMid meet">
 <metadata>Created by potrace 1.14, written by Peter Selinger 2001-2017</metadata>

 <g>
  <title>background</title>
  <rect fill="none" id="canvas_background" height="200" width="218" y="-1" x="-1"/>
 </g>
 <g>
  <title>Layer 1</title>
  <g id="svg_1" fill="#2ebbdf" transform="translate(0,236) scale(0.10000000149011612,-0.10000000149011612) ">
   <path stroke="null" id="svg_2" d="m120,1756.118813l0,-468.947363l137.756976,0l137.756976,0l1.83676,219.486704l2.75514,218.519802l45.000612,-71.550732c24.796256,-39.642973 90.919604,-138.266954 146.022395,-218.519802l101.940163,-147.935972l134.083457,0l135.001837,0l146.022395,219.486704l146.022395,220.453606l2.75514,-220.453606l1.83676,-219.486704l137.756976,0l137.756976,0l0,468.947363l0,468.947363l-135.920217,0l-135.920217,0l-220.411162,-322.945194l-219.492783,-322.945194l-40.408713,64.782419c-22.041116,34.808464 -118.471,179.843731 -214.900883,322.945194l-174.49217,258.162775l-136.838597,0l-135.920217,0l0,-468.947363z"/>

   <path stroke="null" id="svg_11" d="m1665.83702,1242.237646c-36.735194,-92.822571 -54.184411,-123.763428 -116.63424,-201.11557c-124.899659,-155.671186 -159.798093,-254.295168 -132.246697,-369.35648c40.408713,-168.24091 189.186248,-269.765596 348.98434,-238.824739c105.613682,20.304937 202.043566,118.928919 231.43172,236.890936c26.633015,109.259901 -9.183798,210.784588 -129.491558,371.290283c-54.184411,72.517633 -78.062287,115.061312 -112.042341,201.11557c-23.877876,58.981009 -44.082232,108.292999 -45.000612,108.292999 -22.041116,-49.311991 -45.000612,0l0,-107.292999z" fill="#2ebbdf"/>
  </g>
 </g>
</svg>
