<svg xmlns="http://www.w3.org/2000/svg" viewBox="898 791 52 52">
  <defs>
    <style>
      .cls-1 {
        fill: #fde494;
      }

      .cls-2 {
        fill: #fea150;
      }

      .cls-3 {
        fill: #ff5d4a;
      }

      .cls-4 {
        fill: #e45261;
      }

      .cls-5 {
        fill: #ff4d95;
      }

      .cls-6 {
        fill: #cb319c;
      }

      .cls-7 {
        fill: #8a3293;
      }

      .cls-8 {
        fill: #523494;
      }

      .cls-9 {
        fill: #2d2d87;
      }
    </style>
  </defs>
  <g id="instagram" transform="translate(898 791)">
    <path id="Path_1" data-name="Path 1" class="cls-1" d="M11.833,414.877h6.206L8.247,408.6.2,403.9A11.67,11.67,0,0,0,11.833,414.877Z" transform="translate(-0.178 -362.877)"/>
    <path id="Path_2" data-name="Path 2" class="cls-2" d="M34.069,349.342l-7.008-1.793H11.655a6.283,6.283,0,0,1-6.276-6.276v-3.441l-2.69-2.886L0,335.422v5.851c0,.227.007.452.02.676l17.841,10.979h21.2Z" transform="translate(0 -300.928)"/>
    <path id="Path_3" data-name="Path 3" class="cls-3" d="M284.237,440.14a6.256,6.256,0,0,1-4.511,1.919H266.442l12,5.379h1.281a11.658,11.658,0,0,0,9.917-5.538l-2.744-1.635Z" transform="translate(-239.381 -395.438)"/>
    <path id="Path_4" data-name="Path 4" class="cls-4" d="M443.42,319.753v7.234a6.253,6.253,0,0,1-1.765,4.357l5.406,1.76a11.585,11.585,0,0,0,1.739-6.117v-6.379l-2.782-1.563Z" transform="translate(-396.799 -286.642)"/>
    <path id="Path_5" data-name="Path 5" class="cls-5" d="M464.413,143.156l-2.864-.682-2.515,1.506v17.135l5.379.855Z" transform="translate(-412.413 -128.004)"/>
    <path id="Path_6" data-name="Path 6" class="cls-6" d="M329.839,12.741a11.673,11.673,0,0,0-9.967-11.532L312.82,4.143l-3.573,2.322h8.937a6.283,6.283,0,0,1,6.276,6.276v4.321l5.379-.824Z" transform="translate(-277.839 -1.086)"/>
    <path id="Path_7" data-name="Path 7" class="cls-7" d="M212.177,0l-6.671,2.5-5.261,2.877h11.071L221.941.123A11.7,11.7,0,0,0,220.252,0Z" transform="translate(-179.908)"/>
    <path id="Path_8" data-name="Path 8" class="cls-3" d="M143.721,345.8a15.169,15.169,0,0,0,5.3-.953l-8.736-3.966-9.26-1.895A15.239,15.239,0,0,0,143.721,345.8Z" transform="translate(-117.72 -304.557)"/>
    <path id="Path_9" data-name="Path 9" class="cls-4" d="M129.207,269.484a8.961,8.961,0,0,1-16.049-2.552l-2.405-1.5-4.149.461a15.147,15.147,0,0,0,2.481,7.01l18,5.861a15.324,15.324,0,0,0,8.679-8.233l-3.225-1.634Z" transform="translate(-95.777 -238.471)"/>
    <g id="Group_4" data-name="Group 4" transform="translate(10.759 16.687)">
      <path id="Path_10" data-name="Path 10" class="cls-5" d="M112.207,199.745a8.924,8.924,0,0,1,2.158-5.824l-3.825-.535-3.885,1.716a15.182,15.182,0,0,0-.724,4.644c0,.479.025.951.068,1.418l6.554,1.042A8.935,8.935,0,0,1,112.207,199.745Z" transform="translate(-105.931 -190.432)"/>
      <path id="Path_11" data-name="Path 11" class="cls-5" d="M313.312,173.615a15.157,15.157,0,0,0-2.786-8.774l-3.8-.539-3.9,1.718a8.953,8.953,0,0,1,2.674,12.608l6.554,1.042A15.149,15.149,0,0,0,313.312,173.615Z" transform="translate(-282.829 -164.302)"/>
    </g>
    <g id="Group_5" data-name="Group 5" transform="translate(11.483 8.069)">
      <path id="Path_12" data-name="Path 12" class="cls-6" d="M127.58,112.207a8.91,8.91,0,0,1,4.756,1.371l7.7-1.179a15.236,15.236,0,0,0-26.973,4.13l7.709-1.181A8.947,8.947,0,0,1,127.58,112.207Z" transform="translate(-113.063 -103.241)"/>
      <path id="Path_13" data-name="Path 13" class="cls-6" d="M365.517,86.621a3.586,3.586,0,1,0-3.586-3.586A3.59,3.59,0,0,0,365.517,86.621Z" transform="translate(-336.655 -79.449)"/>
    </g>
    <path id="Path_14" data-name="Path 14" class="cls-3" d="M5.379,298.068,2.79,296.776,0,296.316v4.4l5.379,2.411Z" transform="translate(0 -266.221)"/>
    <path id="Path_15" data-name="Path 15" class="cls-4" d="M0,251.692v4.4l5.379,1.752v-5.294l-2.8-1Z" transform="translate(0 -225.996)"/>
    <path id="Path_16" data-name="Path 16" class="cls-5" d="M5.379,219.258l-2.764-.025L0,220.082v2.582l5.379.855Z" transform="translate(0 -196.967)"/>
    <path id="Path_17" data-name="Path 17" class="cls-6" d="M5.379,179.757l-2.849.289L0,182.418v2.2l5.379-.824Z" transform="translate(0 -161.5)"/>
    <path id="Path_18" data-name="Path 18" class="cls-7" d="M0,128.157,5.379,125.5v-6.134l-3.155.3L0,121.787Z" transform="translate(0 -107.239)"/>
    <path id="Path_19" data-name="Path 19" class="cls-8" d="M20.826,0,8.552,4.721.141,9.844A11.7,11.7,0,0,0,0,11.655v2.893l5.379-2.425v-.468a6.283,6.283,0,0,1,6.276-6.276h8.682L32.27,0Z"/>
    <path id="Path_20" data-name="Path 20" class="cls-9" d="M12.9,0A11.674,11.674,0,0,0,1.387,9.844L22.072,0Z" transform="translate(-1.246)"/>
  </g>
</svg>
