<svg version="1" xmlns="http://www.w3.org/2000/svg" width="1597.333" height="314.667" viewBox="0 0 1198.000000 236.000000"><g fill="#fff"><path d="M36 86.5V135h30l.2-22.7.3-22.6 4.9 7.4c2.7 4.1 9.9 14.3 15.9 22.6L98.4 135h29.3l15.9-22.7 15.9-22.8.3 22.8.2 22.7h30V38h-29.6l-24 33.4-23.9 33.4-4.4-6.7c-2.4-3.6-12.9-18.6-23.4-33.4L65.7 38H36v48.5zm209.5-47.1c-19.2 3.8-36.2 22.5-38 41.6-2 21.7 7.5 38.3 27.6 48.6l9.4 4.9 36 .3c39.7.4 43 .1 54.4-5.8 23-11.7 32.3-39.9 20.9-63.8-3.8-8.2-13-17.2-22.3-21.9l-7-3.6-24.5-.8c-33.5-1.1-49.4-.9-56.5.5zM321.8 71c5.9 3.4 8.6 8 8.7 15 0 7.3-2.7 13.4-7.4 16.3-3.5 2.2-4.1 2.2-38.6 2.2-39.5 0-38.7.1-44.3-7.9-3.6-5.3-3.9-14.5-.4-19.3 2.4-3.4 7.5-6.9 12-8.3 1.5-.5 16.9-.8 34.2-.7 31.5.2 31.5.2 35.8 2.7zM379 86.5V135h29.5l46.8-30c25.7-16.5 46.9-30 47.2-30 .3 0 .5 13.5.5 30v30h30V38h-14.7c-10.8 0-15.1.3-16.2 1.3C500 41.1 410.2 99 409.5 99c-.3 0-.5-13.7-.5-30.5V38h-30v48.5z"/><path d="M437 48.1c0 7.7.3 9.8 1.3 9.3 4.6-2.8 27.4-17.8 28.2-18.5.5-.5-5.3-.9-14.3-.9H437v10.1zm114 38.4V135h28.5l23-17.6c12.7-9.7 24.1-18.4 25.6-19.4l2.5-1.9 17.4 19.5 17.4 19.4h19.4c18 0 19.3-.1 18.1-1.7-.8-.9-12.3-13.8-25.7-28.7-20.3-22.6-24-27.3-22.6-28.1 3-1.9 23.1-17 24.7-18.6.9-.9 6.8-5.6 13.2-10.4 6.3-4.9 11.5-8.9 11.5-9.1 0-.2-10.7-.4-23.7-.4h-23.8l-38 29.1-38 29.1-.3-29.1L580 38h-29v48.5zm203.5-2.3c-16.4 25.5-30.5 47.3-31.3 48.5l-1.4 2.3h34.9l3.4-5 3.4-5h72l2.8 5 2.8 5h35.1l-2.7-4.8c-1.6-2.6-5.1-8.1-7.9-12.2-2.9-4.1-15.7-23.8-28.6-43.8L813.7 38h-29.4l-29.8 46.2zm66.2 19.5c.4 1-4.3 1.3-21.7 1.3-12.6 0-22-.4-21.8-.9.2-.5 5.2-8.5 11.3-17.9l10.9-16.9 10.4 16.6c5.8 9.1 10.7 17.2 10.9 17.8zm126.8-45.2c-16.6 7.7-18.2 34.8-2.7 44.5l4.7 3h81.3l.6 2.4c1.5 5.9 3.5 5.6-46.1 5.6h-45.5l-2.9 2.9c-2.4 2.4-2.9 3.8-2.9 7.6s.5 5.2 3 7.6l2.9 3 46.9-.3 46.9-.3 4.8-3c8.5-5.3 12.5-17.5 9.5-29.2-1.2-4.9-6.5-12.4-10.3-14.6-1.6-.9-12.9-1.3-42.7-1.7l-40.5-.5-.3-2.8c-.7-5.9-2-5.7 46.2-5.7h44.3l2.1-2.3c3.3-3.5 3.1-11.2-.5-14.9l-2.7-2.8h-46.5c-37.8.1-47.2.3-49.6 1.5zm115.7 26.2l.3 27.8 2.9 5.3c3.4 6 8.5 11.1 14.8 14.4 4.3 2.3 4.7 2.3 40.3 2.3 33.5 0 36.2-.1 39.5-1.9 6.5-3.5 12.1-9 14.8-14.6l2.7-5.5.3-27.8.3-27.7H1159v24.7c0 22.8-.2 25.1-2 28-1.3 2.2-2.9 3.4-5.2 3.8-1.8.3-16.9.5-33.5.3-27.4-.3-30.4-.5-32-2.1-1.6-1.6-1.8-4.4-2.1-28.2l-.3-26.5h-21l.3 27.7zm-165 22.3c-3.4 1.5-4.7 2.9-6.4 6.6-3.6 8.2-1 14.8 7.5 19 4.8 2.5 5.1 2.5 9.1 1 2.3-.9 5.7-3.2 7.6-5.1 2.8-2.9 3.4-4.2 3.4-8.3.1-3.9-.5-5.6-2.8-8.6-3-3.9-7.8-6.6-11.8-6.6-1.3 0-4.2.9-6.6 2z"/><path fill="00BFFF" d="M201.6 135.2c-4 9.6-5.9 12.8-12.7 20.8-13.6 16.1-17.4 26.3-14.4 38.2 4.4 17.4 20.6 27.9 38 24.7 11.5-2.1 22-12.3 25.2-24.5 2.9-11.3-1-21.8-14.1-38.4-5.9-7.5-8.5-11.9-12.2-20.8-2.6-6.1-4.8-11.2-4.9-11.2-.2 0-2.4 5.1z"/></g></svg>