<?xml version="1.0" standalone="no"?>
<!DOCTYPE svg PUBLIC "-//W3C//DTD SVG 20010904//EN"
 "http://www.w3.org/TR/2001/REC-SVG-20010904/DTD/svg10.dtd">
<svg version="1.0" xmlns="http://www.w3.org/2000/svg"
 width="1198.000000pt" height="236.000000pt" viewBox="0 0 1198.000000 236.000000"
 preserveAspectRatio="xMidYMid meet">
<metadata>
Created by potrace 1.14, written by Peter Selinger 2001-2017
</metadata>
<g transform="translate(0.000000,236.000000) scale(0.100000,-0.100000)"
fill="#fff" stroke="none">
<path d="M360 1495 l0 -485 150 0 150 0 2 227 3 226 49 -74 c27 -41 99 -143
159 -226 l111 -153 146 0 147 0 159 227 159 228 3 -228 2 -227 150 0 150 0 0
485 0 485 -148 0 -148 0 -240 -334 -239 -334 -44 67 c-24 36 -129 186 -234
334 l-190 267 -149 0 -148 0 0 -485z"/>
<path d="M2455 1966 c-192 -38 -362 -225 -380 -416 -20 -217 75 -383 276 -486
l94 -49 360 -3 c397 -4 430 -1 544 58 230 117 323 399 209 638 -38 82 -130
172 -223 219 l-70 36 -245 8 c-335 11 -494 9 -565 -5z m763 -316 c59 -34 86
-80 87 -150 0 -73 -27 -134 -74 -163 -35 -22 -41 -22 -386 -22 -395 0 -387 -1
-443 79 -36 53 -39 145 -4 193 24 34 75 69 120 83 15 5 169 8 342 7 315 -2
315 -2 358 -27z"/>
<path d="M3790 1495 l0 -485 148 0 147 0 468 300 c257 165 469 300 472 300 3
0 5 -135 5 -300 l0 -300 150 0 150 0 0 485 0 485 -147 0 c-108 0 -151 -3 -162
-13 -21 -18 -919 -597 -926 -597 -3 0 -5 137 -5 305 l0 305 -150 0 -150 0 0
-485z"/>
<path d="M4370 1879 c0 -77 3 -98 13 -93 46 28 274 178 282 185 5 5 -53 9
-143 9 l-152 0 0 -101z"/>
<path d="M5510 1495 l0 -485 143 0 142 0 230 176 c127 97 241 184 256 194 l25
19 174 -195 174 -194 194 0 c180 0 193 1 181 17 -8 9 -123 138 -257 287 -203
226 -240 273 -226 281 30 19 231 170 247 186 9 9 68 56 132 104 63 49 115 89
115 91 0 2 -107 4 -237 4 l-238 0 -380 -291 -380 -291 -3 291 -2 291 -145 0
-145 0 0 -485z"/>
<path d="M7545 1518 c-164 -255 -305 -473 -313 -485 l-14 -23 174 0 175 0 34
50 34 50 360 0 360 0 28 -50 28 -50 176 0 175 0 -27 48 c-16 26 -51 81 -79
122 -29 41 -157 238 -286 438 l-233 362 -147 0 -147 0 -298 -462z m662 -195
c4 -10 -43 -13 -217 -13 -126 0 -220 4 -218 9 2 5 52 85 113 179 l109 169 104
-166 c58 -91 107 -172 109 -178z"/>
<path d="M9475 1775 c-166 -77 -182 -348 -27 -445 l47 -30 406 0 407 0 6 -24
c15 -59 35 -56 -461 -56 l-455 0 -29 -29 c-24 -24 -29 -38 -29 -76 0 -38 5
-52 30 -76 l29 -30 469 3 469 3 48 30 c85 53 125 175 95 292 -12 49 -65 124
-103 146 -16 9 -129 13 -427 17 l-405 5 -3 28 c-7 59 -20 57 462 57 l443 0 21
23 c33 35 31 112 -5 149 l-27 28 -465 0 c-378 -1 -472 -3 -496 -15z"/>
<path d="M10632 1513 l3 -278 29 -53 c34 -60 85 -111 148 -144 43 -23 47 -23
403 -23 335 0 362 1 395 19 65 35 121 90 148 146 l27 55 3 278 3 277 -100 0
-101 0 0 -247 c0 -228 -2 -251 -20 -280 -13 -22 -29 -34 -52 -38 -18 -3 -169
-5 -335 -3 -274 3 -304 5 -320 21 -16 16 -18 44 -21 282 l-3 265 -105 0 -105
0 3 -277z"/>
<path d="M8982 1290 c-34 -15 -47 -29 -64 -66 -36 -82 -10 -148 75 -190 48
-25 51 -25 91 -10 23 9 57 32 76 51 28 29 34 42 34 83 1 39 -5 56 -28 86 -30
39 -78 66 -118 66 -13 0 -42 -9 -66 -20z"/>
<path fill="00BFFF" d="M2016 1008 c-40 -96 -59 -128 -127 -208 -136 -161 -174 -263 -144
-382 44 -174 206 -279 380 -247 115 21 220 123 252 245 29 113 -10 218 -141
384 -59 75 -85 119 -122 208 -26 61 -48 112 -49 112 -2 0 -24 -51 -49z"/>
</g>
</svg>
