<svg xmlns="http://www.w3.org/2000/svg" viewBox="1400 770 50 50">
  <defs>
    <style>
      .cls-1 {
        fill: #fff;
      }
    </style>
  </defs>
  <path id="ic_call_24px" class="cls-1" d="M13.056,24.639A42.079,42.079,0,0,0,31.361,42.944l6.111-6.111a2.762,2.762,0,0,1,2.833-.667,31.686,31.686,0,0,0,9.917,1.583A2.786,2.786,0,0,1,53,40.528v9.694A2.786,2.786,0,0,1,50.222,53,47.218,47.218,0,0,1,3,5.778,2.786,2.786,0,0,1,5.778,3H15.5a2.786,2.786,0,0,1,2.778,2.778,31.557,31.557,0,0,0,1.583,9.917,2.788,2.788,0,0,1-.694,2.833Z" transform="translate(1397 767)"/>
</svg>
