<svg xmlns="http://www.w3.org/2000/svg" viewBox="964 790.7 52 52">
  <defs>
    <style>
      .cls-1 {
        fill: #4c75a3;
      }

      .cls-1, .cls-2 {
        fill-rule: evenodd;
      }

      .cls-2 {
        fill: #fff;
      }
    </style>
  </defs>
  <g id="vk" transform="translate(932 758.7)">
    <g id="g3257" transform="translate(32 32)">
      <path id="path2438" class="cls-1" d="M40.013,32H75.987A8.013,8.013,0,0,1,84,40.013V75.987A8.013,8.013,0,0,1,75.987,84H40.013A8.013,8.013,0,0,1,32,75.987V40.013A8.013,8.013,0,0,1,40.013,32" transform="translate(-32 -32)"/>
      <path id="path2442" class="cls-2" d="M199.911,351.008h2.127a1.8,1.8,0,0,0,.971-.424,1.557,1.557,0,0,0,.292-.934s-.042-2.854,1.283-3.274c1.306-.414,2.983,2.758,4.76,3.978a3.371,3.371,0,0,0,2.365.721l4.753-.066s2.486-.153,1.307-2.108c-.1-.16-.687-1.446-3.534-4.088-2.98-2.766-2.581-2.318,1.009-7.1,2.186-2.914,3.06-4.692,2.787-5.454-.26-.726-1.868-.534-1.868-.534l-5.351.033a1.215,1.215,0,0,0-.691.122,1.492,1.492,0,0,0-.472.574,31.05,31.05,0,0,1-1.976,4.172c-2.383,4.046-3.336,4.26-3.725,4.008-.906-.586-.68-2.352-.68-3.607,0-3.921.595-5.556-1.158-5.979a9.159,9.159,0,0,0-2.5-.248,11.541,11.541,0,0,0-4.44.454c-.609.3-1.078.962-.792,1a2.4,2.4,0,0,1,1.579.794,5.163,5.163,0,0,1,.529,2.421s.315,4.616-.736,5.189c-.721.393-1.711-.41-3.835-4.08a34.147,34.147,0,0,1-1.91-3.959,1.59,1.59,0,0,0-.441-.6,2.211,2.211,0,0,0-.822-.332l-5.085.033s-.763.021-1.044.353c-.249.3-.02.906-.02.906s3.981,9.314,8.489,14.007a12.211,12.211,0,0,0,8.827,4.021" transform="translate(-174.347 -314.606)"/>
    </g>
  </g>
</svg>
